<?xml version="1.0" encoding="utf-8"?>
<!-- Generator: Adobe Illustrator 16.0.0, SVG Export Plug-In . SVG Version: 6.00 Build 0)  -->
<!DOCTYPE svg PUBLIC "-//W3C//DTD SVG 1.0//EN" "http://www.w3.org/TR/2001/REC-SVG-20010904/DTD/svg10.dtd">
<svg version="1.0" id="Layer_1" xmlns="http://www.w3.org/2000/svg" xmlns:xlink="http://www.w3.org/1999/xlink" x="0px" y="0px"
	 width="100px" height="100px" viewBox="0 0 100 100" enable-background="new 0 0 100 100" xml:space="preserve">
<path d="M90,73.334H79.528c-1.488-5.742-6.657-10-12.861-10h-10v26.667h10c6.204,0,11.373-4.265,12.861-10H90V73.334z"/>
<path d="M50,74.168v-6.667H40v-4.167H30c-6.204,0-11.374,4.258-12.861,10H10v6.667h7.139c1.487,5.735,6.657,10,12.861,10h10v-4.167
	h10v-6.666H40v-5H50z"/>
<polygon points="46.286,29.999 53.786,9.999 46.667,9.999 36.667,36.668 53.714,36.668 46.214,56.668 53.333,56.668 63.333,29.999 
	"/>
</svg>
